<?xml version="1.0" encoding="UTF-8" ?>
<!DOCTYPE svg PUBLIC "-//W3C//DTD SVG 1.1//EN" "http://www.w3.org/Graphics/SVG/1.1/DTD/svg11.dtd">
<svg width="1024pt" height="1024pt" viewBox="0 0 1024 1024" version="1.1" xmlns="http://www.w3.org/2000/svg">
<g id="#0f1013ff">
<path fill="#0f1013" opacity="1.00" d=" M 0.00 0.00 L 1024.00 0.00 L 1024.00 1024.00 L 0.00 1024.00 L 0.00 0.00 M 132.57 381.72 C 118.73 391.50 109.78 408.04 109.80 425.05 C 109.68 444.68 109.77 464.32 109.85 483.95 C 109.51 505.63 109.64 527.32 109.70 549.01 C 109.87 556.38 109.48 563.77 110.10 571.12 C 111.16 579.11 114.05 586.88 118.72 593.47 C 127.59 606.29 142.27 614.58 157.72 616.20 C 157.43 627.10 157.64 638.03 157.67 648.94 C 157.54 652.81 159.13 657.68 163.43 658.50 C 168.33 659.44 172.05 655.39 175.59 652.71 C 190.72 640.36 206.15 628.39 221.31 616.07 C 250.89 616.82 280.48 615.97 310.07 616.17 C 322.26 616.60 334.42 612.33 344.05 604.92 C 355.13 596.43 362.47 582.99 362.99 568.99 C 363.00 520.00 363.00 471.01 362.99 422.03 C 362.40 407.22 354.73 393.13 343.40 383.74 C 334.08 375.89 322.04 371.62 309.93 371.01 C 260.95 371.00 211.97 371.00 162.98 371.01 C 152.14 371.68 141.34 375.21 132.57 381.72 M 409.30 428.53 C 400.91 439.65 399.26 454.81 402.56 468.08 C 404.97 478.51 412.06 487.39 421.03 493.05 C 439.97 505.43 463.12 507.68 483.72 516.16 C 488.79 518.35 494.10 521.75 495.64 527.41 C 497.20 534.11 497.22 542.06 492.45 547.54 C 487.11 553.61 478.82 555.91 471.08 556.96 C 463.29 556.91 455.28 557.81 447.75 555.28 C 436.05 551.77 427.43 540.88 425.58 528.96 C 416.95 530.63 408.52 533.31 399.93 535.20 C 397.98 535.48 396.93 537.18 396.11 538.77 C 398.41 546.62 400.38 554.88 405.35 561.56 C 416.85 575.41 434.18 583.75 451.92 585.85 C 468.94 587.30 486.63 585.03 501.94 577.14 C 513.05 571.04 523.31 561.50 526.66 548.90 C 528.61 542.43 527.94 535.64 527.99 528.99 C 527.57 514.56 520.92 499.22 507.54 492.41 C 490.28 483.67 471.01 480.33 452.78 474.27 C 448.64 472.92 444.50 471.35 440.97 468.76 C 431.33 462.34 430.99 446.14 440.20 439.20 C 447.09 433.67 456.48 432.81 465.00 433.00 C 473.26 433.85 482.11 435.73 488.28 441.72 C 492.53 445.94 493.68 451.96 496.12 457.21 C 504.50 455.52 512.63 452.76 521.00 451.02 C 522.65 450.87 523.87 449.71 525.18 448.83 C 523.20 438.74 518.70 428.94 511.25 421.73 C 500.25 410.44 484.49 404.69 468.94 404.00 C 463.25 404.17 457.50 403.57 451.86 404.52 C 435.32 406.54 419.23 414.97 409.30 428.53 M 588.94 451.86 C 575.41 453.91 561.18 459.85 553.83 472.01 C 549.40 478.59 547.60 486.39 545.87 494.00 C 555.83 493.99 565.79 493.96 575.76 493.97 C 576.14 487.25 582.18 482.31 588.01 479.96 C 597.40 476.84 608.91 477.70 616.66 484.28 C 622.22 490.34 623.26 499.07 623.64 506.96 C 612.49 505.62 601.24 506.63 590.06 506.99 C 576.65 507.49 562.69 511.28 552.81 520.81 C 540.06 534.07 538.65 556.16 548.36 571.53 C 554.07 580.54 564.82 584.29 574.91 585.73 C 587.53 586.78 600.81 585.46 612.01 579.12 C 616.63 576.61 619.87 572.37 623.62 568.80 C 623.66 573.53 623.76 578.27 623.67 583.00 C 633.13 582.91 642.60 583.15 652.05 582.85 C 654.25 582.37 654.65 579.93 654.49 578.03 C 654.22 558.03 654.47 538.03 654.83 518.04 C 654.87 508.84 655.30 499.53 653.39 490.47 C 651.42 480.70 646.47 471.62 639.64 464.40 C 633.10 457.46 623.64 454.34 614.52 452.56 C 606.08 451.19 597.41 450.18 588.94 451.86 M 846.60 451.74 C 839.72 452.26 832.87 453.79 826.57 456.66 C 816.74 461.10 808.94 468.83 802.11 476.98 C 792.29 488.97 788.58 504.79 788.41 520.01 C 788.54 533.69 791.92 547.77 800.17 558.91 C 806.77 567.84 814.78 576.18 825.07 580.79 C 835.89 585.98 848.19 587.02 860.02 585.98 C 887.13 583.94 910.38 561.37 915.19 534.93 C 918.52 519.68 917.31 503.33 910.97 489.01 C 906.48 478.89 898.98 470.47 890.48 463.52 C 878.27 453.82 861.96 449.91 846.60 451.74 M 660.86 456.49 C 661.15 459.63 662.69 462.43 663.78 465.35 C 678.80 503.04 693.49 540.87 708.49 578.58 C 710.35 583.13 710.10 588.29 707.83 592.66 C 704.79 597.84 701.45 603.08 696.55 606.72 C 691.52 610.25 684.98 610.70 679.10 609.57 C 677.36 609.21 675.01 608.16 674.20 610.48 C 673.82 618.28 674.29 626.11 674.37 633.93 C 677.37 635.39 680.80 634.93 684.03 635.33 C 694.92 635.94 706.55 634.02 715.44 627.31 C 719.74 624.36 722.62 619.92 725.75 615.86 C 736.24 601.44 741.99 584.34 748.17 567.80 C 757.35 543.02 766.43 518.20 775.47 493.37 C 780.37 480.22 784.82 466.89 790.05 453.88 C 781.02 454.14 771.99 453.93 762.96 454.00 C 759.24 453.62 755.96 456.61 754.97 460.02 C 751.40 470.05 747.66 480.02 744.01 490.02 C 737.41 507.36 732.03 525.14 725.46 542.48 C 716.01 515.16 705.83 488.10 696.06 460.90 C 695.05 458.02 693.46 454.71 690.17 454.08 C 681.39 453.90 672.60 454.06 663.83 454.00 C 662.83 454.82 661.84 455.65 660.86 456.49 Z" />
<path fill="#0f1013" opacity="1.00" d=" M 242.39 423.40 C 249.07 421.52 257.06 421.72 262.67 426.25 C 266.92 430.26 267.63 436.46 267.90 441.99 C 268.04 468.65 267.73 495.32 267.79 521.99 C 267.76 529.16 268.33 536.43 266.67 543.48 C 265.53 547.79 262.29 551.44 258.19 553.16 C 251.35 555.72 243.11 555.63 236.99 551.31 C 231.94 547.10 231.52 540.06 231.51 533.97 C 231.43 510.65 231.44 487.33 231.40 464.01 C 231.39 454.30 231.22 444.58 232.11 434.91 C 232.93 429.46 237.08 424.85 242.39 423.40 Z" />
<path fill="#0f1013" opacity="1.00" d=" M 192.37 464.40 C 197.41 463.17 202.93 462.85 207.83 464.79 C 213.08 466.77 216.01 472.61 216.02 477.99 C 216.02 498.33 216.01 518.67 216.02 539.01 C 215.92 544.07 213.99 549.75 209.24 552.23 C 205.23 554.64 200.41 554.15 195.95 554.00 C 190.98 553.64 185.76 551.06 183.75 546.27 C 181.50 541.48 181.98 536.09 181.90 530.96 C 181.94 512.95 181.76 494.95 181.99 476.95 C 182.11 471.00 186.75 465.91 192.37 464.40 Z" />
<path fill="#0f1013" opacity="1.00" d=" M 294.41 470.61 C 301.10 469.79 308.93 471.15 313.29 476.79 C 316.61 481.12 316.26 486.85 316.39 492.01 C 316.28 504.32 316.79 516.65 316.08 528.94 C 315.97 534.63 312.50 540.18 307.12 542.27 C 300.53 544.76 292.23 545.08 286.56 540.32 C 282.89 537.36 282.38 532.36 282.01 527.99 C 281.99 514.65 281.98 501.31 282.01 487.98 C 282.24 483.65 282.81 479.08 285.28 475.40 C 287.44 472.58 290.98 471.14 294.41 470.61 Z" />
<path fill="#0f1013" opacity="1.00" d=" M 844.44 480.55 C 854.99 478.40 867.25 479.91 875.21 487.77 C 881.41 494.22 882.96 503.47 883.92 512.01 C 884.35 521.48 884.49 531.24 881.23 540.28 C 879.21 545.69 875.26 550.35 870.21 553.18 C 859.70 559.25 846.17 559.10 835.46 553.62 C 828.79 550.18 824.18 543.54 822.66 536.26 C 819.90 523.50 820.62 509.96 824.54 497.52 C 827.26 488.56 835.51 482.43 844.44 480.55 Z" />
<path fill="#0f1013" opacity="1.00" d=" M 595.90 527.83 C 605.25 527.22 614.63 526.98 624.00 526.96 C 624.13 533.80 624.35 541.32 620.22 547.16 C 613.59 556.68 601.65 562.18 590.10 561.26 C 584.87 561.21 579.15 559.36 576.17 554.79 C 572.00 548.16 573.76 538.62 579.85 533.75 C 584.41 530.16 590.11 528.13 595.90 527.83 Z" />
</g>
<g id="#ffffffff">
<path fill="#ffffff" opacity="1.00" d=" M 132.57 381.72 C 141.34 375.21 152.14 371.68 162.98 371.01 C 211.97 371.00 260.95 371.00 309.93 371.01 C 322.04 371.62 334.08 375.89 343.40 383.74 C 354.73 393.13 362.40 407.22 362.99 422.03 C 363.00 471.01 363.00 520.00 362.99 568.99 C 362.47 582.99 355.13 596.43 344.05 604.92 C 334.42 612.33 322.26 616.60 310.07 616.17 C 280.48 615.97 250.89 616.82 221.31 616.07 C 206.15 628.39 190.72 640.36 175.59 652.71 C 172.05 655.39 168.33 659.44 163.43 658.50 C 159.13 657.68 157.54 652.81 157.67 648.94 C 157.64 638.03 157.43 627.10 157.72 616.20 C 142.27 614.58 127.59 606.29 118.72 593.47 C 114.05 586.88 111.16 579.11 110.10 571.12 C 109.48 563.77 109.87 556.38 109.70 549.01 C 109.64 527.32 109.51 505.63 109.85 483.95 C 109.77 464.32 109.68 444.68 109.80 425.05 C 109.78 408.04 118.73 391.50 132.57 381.72 M 242.39 423.40 C 237.08 424.85 232.93 429.46 232.11 434.91 C 231.22 444.58 231.39 454.30 231.40 464.01 C 231.44 487.33 231.43 510.65 231.51 533.97 C 231.52 540.06 231.94 547.10 236.99 551.31 C 243.11 555.63 251.35 555.72 258.19 553.16 C 262.29 551.44 265.53 547.79 266.67 543.48 C 268.33 536.43 267.76 529.16 267.79 521.99 C 267.73 495.32 268.04 468.65 267.90 441.99 C 267.63 436.46 266.92 430.26 262.67 426.25 C 257.06 421.72 249.07 421.52 242.39 423.40 M 192.37 464.40 C 186.75 465.91 182.11 471.00 181.99 476.95 C 181.76 494.95 181.94 512.95 181.90 530.96 C 181.98 536.09 181.50 541.48 183.75 546.27 C 185.76 551.06 190.98 553.64 195.95 554.00 C 200.41 554.15 205.23 554.64 209.24 552.23 C 213.99 549.75 215.92 544.07 216.02 539.01 C 216.01 518.67 216.02 498.33 216.02 477.99 C 216.01 472.61 213.08 466.77 207.83 464.79 C 202.93 462.85 197.41 463.17 192.37 464.40 M 294.41 470.61 C 290.98 471.14 287.44 472.58 285.28 475.40 C 282.81 479.08 282.24 483.65 282.01 487.98 C 281.98 501.31 281.99 514.65 282.01 527.99 C 282.38 532.36 282.89 537.36 286.56 540.32 C 292.23 545.08 300.53 544.76 307.12 542.27 C 312.50 540.18 315.97 534.63 316.08 528.94 C 316.79 516.65 316.28 504.32 316.39 492.01 C 316.26 486.85 316.61 481.12 313.29 476.79 C 308.93 471.15 301.10 469.79 294.41 470.61 Z" />
<path fill="#ffffff" opacity="1.00" d=" M 409.30 428.53 C 419.23 414.97 435.32 406.54 451.86 404.52 C 457.50 403.57 463.25 404.17 468.94 404.00 C 484.49 404.69 500.25 410.44 511.25 421.73 C 518.70 428.94 523.20 438.74 525.18 448.83 C 523.87 449.71 522.65 450.87 521.00 451.02 C 512.63 452.76 504.50 455.52 496.12 457.21 C 493.68 451.96 492.53 445.94 488.28 441.72 C 482.11 435.73 473.26 433.85 465.00 433.00 C 456.48 432.81 447.09 433.67 440.20 439.20 C 430.99 446.14 431.33 462.34 440.97 468.76 C 444.50 471.35 448.64 472.92 452.78 474.27 C 471.01 480.33 490.28 483.67 507.54 492.41 C 520.92 499.22 527.57 514.56 527.99 528.99 C 527.94 535.64 528.61 542.43 526.66 548.90 C 523.31 561.50 513.05 571.04 501.94 577.14 C 486.63 585.03 468.94 587.30 451.92 585.85 C 434.18 583.75 416.85 575.41 405.35 561.56 C 400.38 554.88 398.41 546.62 396.11 538.77 C 396.93 537.18 397.98 535.48 399.93 535.20 C 408.52 533.31 416.95 530.63 425.58 528.96 C 427.43 540.88 436.05 551.77 447.75 555.28 C 455.28 557.81 463.29 556.91 471.08 556.96 C 478.82 555.91 487.11 553.61 492.45 547.54 C 497.22 542.06 497.20 534.11 495.64 527.41 C 494.10 521.75 488.79 518.35 483.72 516.16 C 463.12 507.68 439.97 505.43 421.03 493.05 C 412.06 487.39 404.97 478.51 402.56 468.08 C 399.26 454.81 400.91 439.65 409.30 428.53 Z" />
<path fill="#ffffff" opacity="1.00" d=" M 588.94 451.86 C 597.41 450.18 606.08 451.19 614.52 452.56 C 623.64 454.34 633.10 457.46 639.64 464.40 C 646.47 471.62 651.42 480.70 653.39 490.47 C 655.30 499.53 654.87 508.84 654.83 518.04 C 654.47 538.03 654.22 558.03 654.49 578.03 C 654.65 579.93 654.25 582.37 652.05 582.85 C 642.60 583.15 633.13 582.91 623.67 583.00 C 623.76 578.27 623.66 573.53 623.62 568.80 C 619.87 572.37 616.63 576.61 612.01 579.12 C 600.81 585.46 587.53 586.78 574.91 585.73 C 564.82 584.29 554.07 580.54 548.36 571.53 C 538.65 556.16 540.06 534.07 552.81 520.81 C 562.69 511.28 576.65 507.49 590.06 506.99 C 601.24 506.63 612.49 505.62 623.64 506.96 C 623.26 499.07 622.22 490.34 616.66 484.28 C 608.91 477.70 597.40 476.84 588.01 479.96 C 582.18 482.31 576.14 487.25 575.76 493.97 C 565.79 493.96 555.83 493.99 545.87 494.00 C 547.60 486.39 549.40 478.59 553.83 472.01 C 561.18 459.85 575.41 453.91 588.94 451.86 M 595.90 527.83 C 590.11 528.13 584.41 530.16 579.85 533.75 C 573.76 538.62 572.00 548.16 576.17 554.79 C 579.15 559.36 584.87 561.21 590.10 561.26 C 601.65 562.18 613.59 556.68 620.22 547.16 C 624.35 541.32 624.13 533.80 624.00 526.96 C 614.63 526.98 605.25 527.22 595.90 527.83 Z" />
<path fill="#ffffff" opacity="1.00" d=" M 846.60 451.74 C 861.96 449.91 878.27 453.82 890.48 463.52 C 898.98 470.47 906.48 478.89 910.97 489.01 C 917.31 503.33 918.52 519.68 915.19 534.93 C 910.38 561.37 887.13 583.94 860.02 585.98 C 848.19 587.02 835.89 585.98 825.07 580.79 C 814.78 576.18 806.77 567.84 800.17 558.91 C 791.92 547.77 788.54 533.69 788.41 520.01 C 788.58 504.79 792.29 488.97 802.11 476.98 C 808.94 468.83 816.74 461.10 826.57 456.66 C 832.87 453.79 839.72 452.26 846.60 451.74 M 844.44 480.55 C 835.51 482.43 827.26 488.56 824.54 497.52 C 820.62 509.96 819.90 523.50 822.66 536.26 C 824.18 543.54 828.79 550.18 835.46 553.62 C 846.17 559.10 859.70 559.25 870.21 553.18 C 875.26 550.35 879.21 545.69 881.23 540.28 C 884.49 531.24 884.35 521.48 883.92 512.01 C 882.96 503.47 881.41 494.22 875.21 487.77 C 867.25 479.91 854.99 478.40 844.44 480.55 Z" />
<path fill="#ffffff" opacity="1.00" d=" M 660.86 456.49 C 661.84 455.65 662.83 454.82 663.83 454.00 C 672.60 454.06 681.39 453.90 690.17 454.08 C 693.46 454.71 695.05 458.02 696.06 460.90 C 705.83 488.10 716.01 515.16 725.46 542.48 C 732.03 525.14 737.41 507.36 744.01 490.02 C 747.66 480.02 751.40 470.05 754.97 460.02 C 755.96 456.61 759.24 453.62 762.96 454.00 C 771.99 453.93 781.02 454.14 790.05 453.88 C 784.82 466.89 780.37 480.22 775.47 493.37 C 766.43 518.20 757.35 543.02 748.17 567.80 C 741.99 584.34 736.24 601.44 725.75 615.86 C 722.62 619.92 719.74 624.36 715.44 627.31 C 706.55 634.02 694.92 635.94 684.03 635.33 C 680.80 634.93 677.37 635.39 674.37 633.93 C 674.29 626.11 673.82 618.28 674.20 610.48 C 675.01 608.16 677.36 609.21 679.10 609.57 C 684.98 610.70 691.52 610.25 696.55 606.72 C 701.45 603.08 704.79 597.84 707.83 592.66 C 710.10 588.29 710.35 583.13 708.49 578.58 C 693.49 540.87 678.80 503.04 663.78 465.35 C 662.69 462.43 661.15 459.63 660.86 456.49 Z" />
</g>
</svg>
